<?xml version="1.0" standalone="no"?>
<!DOCTYPE svg PUBLIC "-//W3C//DTD SVG 20010904//EN"
 "http://www.w3.org/TR/2001/REC-SVG-20010904/DTD/svg10.dtd">
<svg version="1.0" xmlns="http://www.w3.org/2000/svg"
 width="512.000000pt" height="512.000000pt" viewBox="0 0 512.000000 512.000000"
 preserveAspectRatio="xMidYMid meet">
<metadata>
Created by potrace 1.11, written by Peter Selinger 2001-2013
</metadata>
<g transform="translate(0.000000,512.000000) scale(0.100000,-0.100000)"
fill="#000000" stroke="none">
<path d="M840 4700 c-74 -4 -92 -7 -60 -10 41 -5 45 -7 42 -30 -2 -14 -5 -26
-5 -27 -1 -1 -58 -7 -127 -13 -69 -6 -134 -16 -146 -22 -12 -5 -33 -8 -47 -6
-14 1 -26 0 -27 -4 -2 -35 1 -48 11 -43 6 4 8 13 5 21 -4 10 3 14 24 14 26 0
29 -4 28 -25 -2 -22 -7 -25 -38 -25 -20 0 -40 -4 -46 -9 -5 -5 -27 -11 -49
-13 l-40 -3 -9 -92 -9 -93 -76 -1 c-42 -1 -102 -4 -133 -8 l-58 -6 -6 -191
c-3 -108 -2 -194 3 -197 5 -3 43 -7 84 -8 96 -3 99 -5 99 -44 0 -46 9 -65 30
-65 18 0 36 -43 25 -60 -4 -6 -1 -10 4 -10 6 0 11 19 11 42 0 72 18 29 24 -57
3 -44 9 -103 12 -131 l6 -51 112 -12 c61 -6 141 -14 178 -17 l67 -7 3 -41 3
-41 98 -9 97 -8 0 -34 0 -34 190 0 190 0 0 34 0 34 88 7 c48 4 93 12 100 17 6
6 12 26 12 44 0 21 5 34 13 34 6 0 69 5 140 11 l127 12 0 39 c0 37 1 38 34 38
18 0 38 6 44 13 5 6 13 56 17 110 l7 97 33 0 c36 0 33 -9 51 143 l6 48 136 -3
137 -3 9 -92 9 -92 36 -3 c35 -3 36 -4 39 -48 4 -56 16 -70 58 -70 31 0 33 -2
29 -32 -5 -42 18 -68 61 -68 31 0 33 -2 36 -37 3 -42 -5 -38 148 -59 45 -6 46
-7 42 -40 -3 -22 0 -35 9 -38 8 -3 74 -10 147 -17 l132 -11 0 -34 0 -34 189 0
190 0 3 38 3 37 98 9 97 9 0 38 0 37 88 7 c48 3 93 8 100 10 7 3 12 21 12 45
0 43 16 55 23 18 l4 -23 2 23 c1 14 7 22 20 22 10 0 24 7 31 15 7 9 29 15 51
15 38 0 39 0 34 34 -2 22 1 39 11 46 7 7 14 29 14 50 0 34 2 37 31 38 43 1 59
18 59 62 l0 38 73 7 c39 4 187 6 327 4 l255 -4 3 55 c2 30 1 101 -3 158 l-7
102 -44 0 -44 0 0 45 c0 29 -5 45 -12 46 -7 1 -136 4 -287 8 l-275 6 0 40 c-1
40 -1 40 -46 45 l-45 5 -3 46 -3 46 -87 9 -87 9 -5 40 -5 40 -137 14 -138 14
0 28 c0 26 3 28 48 31 84 7 -508 13 -668 8 -116 -4 -132 -6 -64 -8 50 -1 93
-4 96 -7 3 -3 3 -16 1 -29 -5 -22 -9 -23 -130 -29 -85 -5 -133 -12 -148 -21
-13 -8 -34 -13 -48 -10 -14 2 -29 0 -32 -6 -4 -6 8 -10 29 -10 32 0 36 -3 36
-25 0 -22 -4 -25 -34 -25 -19 0 -38 -4 -41 -10 -3 -5 -26 -10 -51 -10 l-44 0
0 -44 0 -44 -102 -7 c-57 -3 -186 -5 -288 -3 l-185 3 -3 47 c-3 46 -3 46 -45
52 -127 17 -127 17 -127 42 0 19 5 24 25 24 14 0 25 -4 25 -10 0 -5 -7 -10
-16 -10 -8 0 -12 -4 -9 -10 3 -5 14 -10 23 -10 13 0 17 8 16 27 -1 23 -5 28
-30 28 -16 0 -33 3 -39 6 -5 4 -52 10 -102 14 -92 7 -93 8 -94 34 -1 14 -1 31
0 38 1 9 -65 13 -276 15 -153 2 -325 1 -383 -2z m664 -488 c5 -61 5 -144 0
-200 l-9 -97 -115 -3 c-63 -1 -146 1 -185 5 l-70 8 0 190 0 190 45 6 c25 3
108 6 185 5 l140 -1 9 -103z m2077 93 c8 -5 10 -61 7 -194 l-4 -186 -97 -9
c-55 -5 -135 -5 -184 0 l-88 9 -8 60 c-4 33 -6 119 -5 190 l3 130 50 7 c61 8
310 2 326 -7z m-3143 -732 c-2 -22 -8 -28 -28 -28 -18 0 -25 5 -26 20 -1 29 4
35 32 35 22 0 25 -4 22 -27z"/>
<path d="M500 4556 c0 -9 5 -16 10 -16 6 0 10 4 10 9 0 6 -4 13 -10 16 -5 3
-10 -1 -10 -9z"/>
<path d="M2560 4549 c0 -5 5 -7 10 -4 6 3 10 8 10 11 0 2 -4 4 -10 4 -5 0 -10
-5 -10 -11z"/>
<path d="M4035 3770 c3 -5 8 -10 11 -10 2 0 4 5 4 10 0 6 -5 10 -11 10 -5 0
-7 -4 -4 -10z"/>
<path d="M4035 3740 c-3 -5 -1 -10 4 -10 6 0 11 5 11 10 0 6 -2 10 -4 10 -3 0
-8 -4 -11 -10z"/>
<path d="M3810 3538 c0 -4 12 -8 27 -8 14 0 23 3 19 7 -10 10 -46 11 -46 1z"/>
<path d="M3484 3106 c-6 -16 1 -164 11 -239 l7 -48 37 3 c35 3 36 4 39 46 l3
42 95 0 94 0 0 -294 0 -295 -42 -3 -43 -3 -9 -92 -8 -93 -34 0 c-37 0 -49 -16
-53 -69 -2 -46 -7 -51 -46 -51 -33 0 -34 -1 -37 -42 l-3 -43 -50 -5 -50 -5 -3
-93 -3 -92 -39 0 c-44 0 -60 -18 -60 -69 0 -28 -3 -31 -32 -31 -46 0 -56 -10
-60 -55 l-3 -40 -92 -9 -92 -9 -3 -41 -3 -41 -90 -10 -90 -10 -3 -41 -3 -41
-92 -9 -92 -9 -3 -41 -3 -42 -70 -6 c-38 -3 -100 -9 -139 -12 l-70 -7 0 -37 0
-37 -77 -7 c-98 -8 -382 -8 -545 1 l-127 6 -3 41 -3 41 -50 7 c-116 17 -122
18 -120 41 1 12 7 22 12 22 6 0 15 3 19 8 4 4 -2 7 -12 7 -11 0 -24 4 -29 9
-6 6 -32 11 -60 13 l-50 3 -3 43 c-3 42 -3 42 -42 42 -21 0 -42 5 -45 10 -3 6
-24 10 -46 10 -38 0 -39 1 -39 34 0 18 -5 46 -10 62 -6 18 -7 62 -3 114 l8 85
39 5 c38 5 40 7 40 40 0 33 -3 35 -35 38 -48 5 -59 18 -59 68 l0 44 -39 0 -40
0 -3 -47 -3 -48 -45 -5 c-44 -5 -45 -6 -48 -45 -1 -22 -7 -49 -12 -60 -5 -11
-11 -33 -13 -50 -4 -26 -4 -26 -6 7 -1 33 -4 37 -23 34 -17 -2 -24 -11 -26
-31 -2 -16 -11 -39 -20 -52 -12 -20 -22 -24 -49 -21 -32 4 -33 3 -33 -33 0
-21 -4 -41 -10 -44 -5 -3 -10 -26 -10 -50 l0 -44 -42 -3 -43 -3 0 -55 0 -55
44 -3 c51 -4 61 6 61 61 0 38 0 38 38 35 34 -3 37 -5 34 -30 -6 -47 14 -70 56
-66 37 3 37 3 42 -42 l5 -45 45 -5 c39 -4 45 -8 48 -30 8 -71 7 -70 80 -70 37
0 97 -3 134 -6 l67 -7 3 -41 3 -41 95 -5 95 -5 3 -48 3 -47 117 0 c64 0 147
-3 184 -6 l67 -7 3 -41 3 -41 183 -3 c102 -1 190 2 200 7 14 7 17 18 14 44
l-4 34 189 9 188 9 3 42 3 41 107 7 c59 3 118 7 132 8 22 2 25 7 28 44 l3 41
100 8 c99 7 100 7 105 34 5 23 10 27 35 24 16 -2 29 1 29 6 0 6 -16 10 -37 10
-43 0 -35 14 10 18 18 1 55 5 84 8 l52 6 3 46 3 47 48 3 47 3 0 94 0 93 94 7
95 7 3 47 3 46 43 3 42 3 0 42 c0 44 10 69 26 66 5 -1 21 -1 35 0 l26 1 13
140 13 139 28 -3 c16 -2 33 2 38 8 5 6 13 55 17 109 l7 97 37 0 38 0 7 88 c4
49 10 94 14 100 3 6 22 12 41 14 l35 3 9 298 9 297 38 0 39 0 0 44 0 43 -61 7
c-34 3 -183 6 -331 6 -222 0 -270 -2 -274 -14z m-2672 -1541 c5 -23 2 -25 -26
-24 -23 1 -26 3 -8 6 14 3 22 12 22 24 0 27 7 24 12 -6z"/>
<path d="M1472 1275 c0 -16 2 -22 5 -12 2 9 2 23 0 30 -3 6 -5 -1 -5 -18z"/>
<path d="M2290 880 c0 -5 5 -10 11 -10 5 0 7 5 4 10 -3 6 -8 10 -11 10 -2 0
-4 -4 -4 -10z"/>
</g>
</svg>
